<svg width="18" height="18" viewBox="0 0 18 18" fill="none" xmlns="http://www.w3.org/2000/svg">
    <path d="M13.5259 12.8477L17.0948 16.4166L15.9163 17.5951L12.3474 14.0262C11.0642 15.0528 9.43675 15.667 7.66675 15.667C3.52675 15.667 0.166748 12.307 0.166748 8.16699C0.166748 4.02699 3.52675 0.666992 7.66675 0.666992C11.8067 0.666992 15.1667 4.02699 15.1667 8.16699C15.1667 9.93699 14.5526 11.5644 13.5259 12.8477ZM11.854 12.2293C12.873 11.1792 13.5001 9.74666 13.5001 8.16699C13.5001 4.94408 10.8897 2.33366 7.66675 2.33366C4.44383 2.33366 1.83341 4.94408 1.83341 8.16699C1.83341 11.3899 4.44383 14.0003 7.66675 14.0003C9.24642 14.0003 10.6789 13.3732 11.7291 12.3542L11.854 12.2293Z" fill="#494949"/>
</svg>
