<svg width="16" height="16" viewBox="0 0 16 16" fill="none" xmlns="http://www.w3.org/2000/svg">
    <path d="M13.2734 10.34H10.2534C10.0766 10.34 9.90699 10.4102 9.78197 10.5352C9.65695 10.6603 9.58671 10.8298 9.58671 11.0066C9.58671 11.1835 9.65695 11.353 9.78197 11.478C9.90699 11.6031 10.0766 11.6733 10.2534 11.6733H11.8534C11.118 12.4418 10.1696 12.9729 9.13015 13.1982C8.09066 13.4236 7.00751 13.333 6.01989 12.9381C5.03227 12.5432 4.18529 11.862 3.58777 10.9821C2.99025 10.1021 2.66949 9.06362 2.66671 7.99998C2.66671 7.82317 2.59647 7.6536 2.47145 7.52857C2.34642 7.40355 2.17685 7.33331 2.00004 7.33331C1.82323 7.33331 1.65366 7.40355 1.52864 7.52857C1.40361 7.6536 1.33337 7.82317 1.33337 7.99998C1.3369 9.30185 1.72152 10.5742 2.43978 11.66C3.15803 12.7458 4.17848 13.5976 5.3752 14.1101C6.57192 14.6227 7.89253 14.7737 9.17405 14.5444C10.4556 14.3151 11.6419 13.7157 12.5867 12.82V14C12.5867 14.1768 12.6569 14.3464 12.782 14.4714C12.907 14.5964 13.0766 14.6666 13.2534 14.6666C13.4302 14.6666 13.5998 14.5964 13.7248 14.4714C13.8498 14.3464 13.92 14.1768 13.92 14V11C13.9184 10.8277 13.8501 10.6628 13.7296 10.5398C13.609 10.4167 13.4455 10.3451 13.2734 10.34ZM8.00004 1.33331C6.29096 1.33819 4.64903 1.99926 3.41337 3.17998V1.99998C3.41337 1.82317 3.34314 1.6536 3.21811 1.52858C3.09309 1.40355 2.92352 1.33331 2.74671 1.33331C2.5699 1.33331 2.40033 1.40355 2.2753 1.52858C2.15028 1.6536 2.08004 1.82317 2.08004 1.99998V4.99998C2.08004 5.17679 2.15028 5.34636 2.2753 5.47138C2.40033 5.59641 2.5699 5.66665 2.74671 5.66665H5.74671C5.92352 5.66665 6.09309 5.59641 6.21811 5.47138C6.34314 5.34636 6.41337 5.17679 6.41337 4.99998C6.41337 4.82317 6.34314 4.6536 6.21811 4.52858C6.09309 4.40355 5.92352 4.33331 5.74671 4.33331H4.14671C4.88168 3.56523 5.82943 3.03431 6.86831 2.80872C7.90718 2.58312 8.98977 2.67314 9.97711 3.06722C10.9645 3.4613 11.8115 4.14145 12.4095 5.02038C13.0076 5.89931 13.3293 6.9369 13.3334 7.99998C13.3334 8.17679 13.4036 8.34636 13.5286 8.47138C13.6537 8.59641 13.8232 8.66665 14 8.66665C14.1769 8.66665 14.3464 8.59641 14.4714 8.47138C14.5965 8.34636 14.6667 8.17679 14.6667 7.99998C14.6667 7.1245 14.4943 6.25759 14.1592 5.44876C13.8242 4.63992 13.3331 3.90499 12.7141 3.28593C12.095 2.66688 11.3601 2.17581 10.5513 1.84078C9.74243 1.50575 8.87552 1.33331 8.00004 1.33331Z" fill="#F9A500"/>
</svg>
