<svg width="16" height="16" viewBox="0 0 16 16" fill="none" xmlns="http://www.w3.org/2000/svg">
    <path d="M8.93996 7.99998L11.8066 5.13998C11.9322 5.01445 12.0027 4.84418 12.0027 4.66665C12.0027 4.48911 11.9322 4.31885 11.8066 4.19331C11.6811 4.06778 11.5108 3.99725 11.3333 3.99725C11.1558 3.99725 10.9855 4.06778 10.86 4.19331L7.99996 7.05998L5.13996 4.19331C5.01442 4.06778 4.84416 3.99725 4.66663 3.99725C4.48909 3.99725 4.31883 4.06778 4.19329 4.19331C4.06776 4.31885 3.99723 4.48911 3.99723 4.66665C3.99723 4.84418 4.06776 5.01445 4.19329 5.13998L7.05996 7.99998L4.19329 10.86C4.13081 10.922 4.08121 10.9957 4.04737 11.0769C4.01352 11.1582 3.99609 11.2453 3.99609 11.3333C3.99609 11.4213 4.01352 11.5085 4.04737 11.5897C4.08121 11.6709 4.13081 11.7447 4.19329 11.8066C4.25527 11.8691 4.329 11.9187 4.41024 11.9526C4.49148 11.9864 4.57862 12.0038 4.66663 12.0038C4.75463 12.0038 4.84177 11.9864 4.92301 11.9526C5.00425 11.9187 5.07798 11.8691 5.13996 11.8066L7.99996 8.93998L10.86 11.8066C10.9219 11.8691 10.9957 11.9187 11.0769 11.9526C11.1581 11.9864 11.2453 12.0038 11.3333 12.0038C11.4213 12.0038 11.5084 11.9864 11.5897 11.9526C11.6709 11.9187 11.7446 11.8691 11.8066 11.8066C11.8691 11.7447 11.9187 11.6709 11.9526 11.5897C11.9864 11.5085 12.0038 11.4213 12.0038 11.3333C12.0038 11.2453 11.9864 11.1582 11.9526 11.0769C11.9187 10.9957 11.8691 10.922 11.8066 10.86L8.93996 7.99998Z" fill="#791919"/>
</svg>
